<?xml version="1.0" encoding="utf-8"?>
<!-- Generator: Adobe Illustrator 23.0.5, SVG Export Plug-In . SVG Version: 6.00 Build 0)  -->
<svg version="1.1" id="Capa_1" xmlns="http://www.w3.org/2000/svg" xmlns:xlink="http://www.w3.org/1999/xlink" x="0px" y="0px"
	 viewBox="0 0 512 512" style="enable-background:new 0 0 512 512;" xml:space="preserve">
<style type="text/css">
	.st0{fill:#F5F5F5;}
</style>
<g>
	<g>
		<path class="st0" d="M452,40h-24V0h-40v40H124V0H84v40H60C26.9,40,0,66.9,0,100v352c0,33.1,26.9,60,60,60h392
			c33.1,0,60-26.9,60-60V100C512,66.9,485.1,40,452,40z M472,452c0,11-9,20-20,20H60c-11,0-20-9-20-20V188h432V452z M472,148H40v-48
			c0-11,9-20,20-20h24v40h40V80h264v40h40V80h24c11,0,20,9,20,20V148z"/>
	</g>
	<path class="st0" d="M428,120V80h24c11,0,20,9,20,20V60H37v435h435V148H40v-48c0-11,9-20,20-20h24v40h40V80h264v40H428z M116,310
		v40H76v-40H116z M76,270v-40h40v40H76z M116,390v40H76v-40H116z M196,310v40h-40v-40H196z M156,270v-40h40v40H156z M196,390v40h-40
		v-40H196z M276,310v40h-40v-40H276z M236,270v-40h40v40H236z M276,390v40h-40v-40H276z M356,310v40h-40v-40H356z M316,270v-40h40
		v40H316z M356,390v40h-40v-40H356z M436,310v40h-40v-40H436z M396,270v-40h40v40H396z"/>
</g>
<g>
	<path class="st0" d="M452,40h-24V0h-40v40H124V0H84v40H60C26.9,40,0,66.9,0,100v352c0,33.1,26.9,60,60,60h392c33.1,0,60-26.9,60-60
		V100C512,66.9,485.1,40,452,40z M472,452c0,11-9,20-20,20H60c-11,0-20-9-20-20V188h432V452z M472,148H40v-48c0-11,9-20,20-20h24v40
		h40V80h264v40h40V80h24c11,0,20,9,20,20V148z"/>
</g>
</svg>
