<?xml version="1.0" encoding="utf-8"?>
<!-- Generator: Adobe Illustrator 23.0.5, SVG Export Plug-In . SVG Version: 6.00 Build 0)  -->
<svg version="1.1" id="Layer_1" xmlns="http://www.w3.org/2000/svg" xmlns:xlink="http://www.w3.org/1999/xlink" x="0px" y="0px"
	 viewBox="0 0 512 537.8" style="enable-background:new 0 0 512 537.8;" xml:space="preserve">
<style type="text/css">
	.st0{fill:#F5F5F5;stroke:#F5F5F5;stroke-width:4;stroke-miterlimit:10;}
	.st1{fill:#F5F5F5;stroke:#F5F5F5;stroke-miterlimit:10;}
	.st2{fill:#FFFFFF;stroke:#F5F5F5;stroke-width:4;stroke-miterlimit:10;}
	.st3{fill:#F5F5F5;}
</style>
<g>
	<path class="st0" d="M369.9,387.9h-245v-360h245V387.9z M373.4,12.9h-252c-6.3,0-11.5,5.2-11.5,11.5v459c0,6.3,5.2,11.5,11.5,11.5
		h4.7v22.5c0,4.1,3.4,7.5,7.5,7.5h44c4.1,0,7.5-3.4,7.5-7.5v-22.5h124.6v22.5c0,4.1,3.4,7.5,7.5,7.5h44c4.1,0,7.5-3.4,7.5-7.5v-22.5
		h4.7c6.3,0,11.5-5.2,11.5-11.5v-459C384.9,18.1,379.7,12.9,373.4,12.9z M170.1,509.9h-29v-15h29V509.9z M353.7,509.9h-29v-15h29
		V509.9z M369.9,479.9h-245v-77h245V479.9z"/>
	<path class="st1" d="M334.2,420.9h-52c-6.3,0-11.5,5.2-11.5,11.5v22c0,6.3,5.2,11.5,11.5,11.5h52c6.3,0,11.5-5.2,11.5-11.5v-22
		C345.7,426.1,340.5,420.9,334.2,420.9z M330.7,450.9h-45v-15h45V450.9z"/>
	<path class="st0" d="M124.9,402.9v77h245v-77H124.9z M345.7,454.4c0,6.3-5.2,11.5-11.5,11.5h-52c-6.3,0-11.5-5.2-11.5-11.5v-22
		c0-6.3,5.2-11.5,11.5-11.5h52c6.3,0,11.5,5.2,11.5,11.5V454.4z"/>
	<path class="st0" d="M247.4,38.1c-44.6,0-80.9,36.3-80.9,80.9c4.4,107.4,157.4,107.3,161.9,0C328.3,74.4,292,38.1,247.4,38.1z
		 M247.4,185c-36.4,0-65.9-29.6-65.9-65.9c3.6-87.5,128.3-87.5,131.9,0C313.3,155.4,283.8,185,247.4,185z"/>
	<path class="st0" d="M206.5,357c-1.9,3.7-0.5,8.2,3.1,10.1c53,28.6,119.3-11.3,118.7-71.6c0-44.6-36.3-80.9-80.9-80.9
		c-64.6-0.6-103.8,74.5-66.5,127.1c2.4,3.4,7,4.2,10.4,1.9c3.4-2.4,4.2-7,1.9-10.4c-30.4-42.9,1.5-104,54.2-103.6
		c36.4,0,65.9,29.6,65.9,65.9c0.4,49.1-53.6,81.6-96.7,58.3C212.9,352,208.4,353.4,206.5,357L206.5,357z"/>
	<path class="st0" d="M247.4,91.5c-15.2,0-27.5,12.3-27.5,27.5c1.5,36.5,53.5,36.5,55,0C274.9,103.8,262.6,91.5,247.4,91.5z
		 M247.4,131.5c-6.9,0-12.5-5.6-12.5-12.5c0.7-16.6,24.3-16.6,25,0C259.9,125.9,254.3,131.5,247.4,131.5z"/>
	<path class="st0" d="M274.9,295.6c0-15.2-12.3-27.5-27.5-27.5c-36.5,1.5-36.5,53.5,0,55C262.6,323.1,274.9,310.8,274.9,295.6z
		 M234.9,295.6c0-6.9,5.6-12.5,12.5-12.5c16.6,0.7,16.6,24.3,0,25C240.5,308.1,234.9,302.5,234.9,295.6z"/>
	<g>
		<path class="st2" d="M247.4,268.2c-15.2,0-27.5,12.3-27.5,27.5c1.5,36.5,53.5,36.5,55,0C274.9,280.5,262.6,268.2,247.4,268.2z
			 M247.4,308.2c-6.9,0-12.5-5.6-12.5-12.5c0.7-16.6,24.3-16.6,25,0C259.9,302.6,254.3,308.2,247.4,308.2z"/>
		<path class="st2" d="M247.4,91.8c-15.2,0-27.5,12.3-27.5,27.5c1.5,36.5,53.5,36.5,55,0C274.9,104.1,262.6,91.8,247.4,91.8z
			 M247.4,131.8c-6.9,0-12.5-5.6-12.5-12.5c0.7-16.6,24.3-16.6,25,0C259.9,126.2,254.3,131.8,247.4,131.8z"/>
		<path class="st2" d="M118.9,21.8V394h257V21.8H118.9z M247.4,361.4c-36.3,0-65.8-29.4-65.8-65.8s29.4-65.8,65.8-65.8
			c36.3,0,65.8,29.4,65.8,65.8S283.7,361.4,247.4,361.4z M247.4,185c-36.3,0-65.8-29.4-65.8-65.8s29.4-65.8,65.8-65.8
			c36.3,0,65.8,29.4,65.8,65.8S283.7,185,247.4,185z"/>
	</g>
	<path class="st0" d="M247.3,38.1c-44.6,0-80.9,36.3-80.9,80.9c4.4,107.4,157.4,107.3,161.9,0C328.2,74.4,291.9,38.1,247.3,38.1z
		 M247.3,185c-36.4,0-65.9-29.6-65.9-65.9c3.6-87.5,128.3-87.5,131.9,0C313.2,155.4,283.7,185,247.3,185z"/>
	<path class="st3" d="M247.3,214.9c-44.6,0-80.9,36.3-80.9,80.9c4.4,107.4,157.4,107.3,161.9,0C328.2,251.2,291.9,214.9,247.3,214.9
		z M247.3,361.8c-36.4,0-65.9-29.6-65.9-65.9c3.6-87.5,128.3-87.5,131.9,0C313.2,332.2,283.7,361.8,247.3,361.8z"/>
</g>
</svg>
