<svg id="Layer_1" enable-background="new 0 0 512 512" height="512" viewBox="0 0 512 512" width="512" xmlns="http://www.w3.org/2000/svg"><g><g><path d="m386 76.731c4.143 0 7.5-3.358 7.5-7.5v-57.731c0-6.341-5.159-11.5-11.5-11.5h-252c-6.341 0-11.5 5.159-11.5 11.5v459c0 6.341 5.159 11.5 11.5 11.5h4.687v22.5c0 4.142 3.357 7.5 7.5 7.5h44c4.143 0 7.5-3.358 7.5-7.5v-22.5h68.621c9.931-.344 9.923-14.66 0-15h-128.808v-77h245v77h-81.115c-9.931.344-9.923 14.66 0 15h20.929v22.5c0 4.142 3.357 7.5 7.5 7.5h44c4.143 0 7.5-3.358 7.5-7.5v-22.5h4.686c6.341 0 11.5-5.159 11.5-11.5v-364.387c-.344-9.931-14.66-9.923-15 0v268.887h-245v-360h245v54.231c0 4.142 3.357 7.5 7.5 7.5zm-207.313 405.269v15h-29v-15zm183.626 15h-29v-15h29z"/><path d="m342.846 453.005c6.341 0 11.5-5.159 11.5-11.5v-22c0-6.341-5.159-11.5-11.5-11.5h-52c-6.341 0-11.5 5.159-11.5 11.5v22c0 6.341 5.159 11.5 11.5 11.5zm-48.5-30h45v15h-45z"/><path d="m256 25.174c-44.63 0-80.939 36.309-80.939 80.939 4.446 107.377 157.449 107.346 161.879-.001-.001-44.629-36.31-80.938-80.94-80.938zm0 146.879c-36.359 0-65.939-29.58-65.939-65.939 3.622-87.477 128.27-87.452 131.879 0-.001 36.359-29.581 65.939-65.94 65.939z"/><path d="m215.074 344.139c-1.937 3.662-.539 8.2 3.123 10.137 52.987 28.585 119.263-11.297 118.742-71.586.001-44.63-36.309-80.939-80.939-80.939-64.628-.552-103.838 74.508-66.459 127.15 2.367 3.399 7.042 4.235 10.44 1.868 3.399-2.367 4.235-7.042 1.868-10.44-30.438-42.879 1.505-104.036 54.151-103.577 36.359 0 65.939 29.58 65.939 65.939.42 49.114-53.562 81.603-96.729 58.327-3.662-1.939-8.199-.54-10.136 3.121z"/><path d="m256 78.613c-15.163 0-27.5 12.336-27.5 27.5 1.511 36.482 53.495 36.472 55 0 0-15.163-12.337-27.5-27.5-27.5zm0 40c-6.893 0-12.5-5.607-12.5-12.5.687-16.583 24.316-16.578 25 0 0 6.893-5.607 12.5-12.5 12.5z"/><path d="m283.5 282.69c0-15.164-12.337-27.5-27.5-27.5-36.482 1.511-36.472 53.495 0 55 15.163 0 27.5-12.336 27.5-27.5zm-40 0c0-6.893 5.607-12.5 12.5-12.5 16.583.687 16.578 24.316 0 25-6.893 0-12.5-5.607-12.5-12.5z"/></g></g></svg>