<?xml version="1.0" encoding="iso-8859-1"?>
<!-- Generator: Adobe Illustrator 19.0.0, SVG Export Plug-In . SVG Version: 6.00 Build 0)  -->
<svg version="1.1" id="Capa_1" xmlns="http://www.w3.org/2000/svg" xmlns:xlink="http://www.w3.org/1999/xlink" x="0px" y="0px"
	 viewBox="0 0 512 512" style="enable-background:new 0 0 512 512;" xml:space="preserve">
<g>
	<g>
		<path d="M414.448,269.483c-9.459,0-18.809,1.384-27.793,4.113l-86.034,23.818v83.616l130.169-36.035l7.94,28.68l-138.109,38.232
			v83.617l141.435-39.153l0.389-0.113c19.131-5.86,36.313-17.939,48.385-34.009c12.492-16.631,19.094-36.442,19.094-57.291
			C509.924,312.313,467.093,269.483,414.448,269.483z"/>
	</g>
</g>
<g>
	<g>
		<path d="M343.684,53.177L151.497,0v478.957L270.862,512V141.875c0-8.204,6.675-14.879,14.879-14.879s14.879,6.675,14.879,14.879
			v115.75H315.5c2.692,0,5.361-0.103,8.002-0.305c1.761-0.134,3.51-0.312,5.245-0.534c2.604-0.331,5.177-0.76,7.717-1.282
			c1.693-0.347,3.372-0.736,5.034-1.165c0.831-0.214,1.659-0.439,2.482-0.674c42.808-12.185,74.46-51.129,75.64-97.513
			c0.023-0.892,0.034-1.786,0.034-2.684C419.655,106.995,388.439,65.76,343.684,53.177z"/>
	</g>
</g>
<g>
	<g>
		<path d="M121.739,263.315l-47.357,13.109c-9.106,2.279-17.835,5.899-25.949,10.764c-45.151,27.072-59.86,85.831-32.787,130.982
			c10.722,17.882,26.573,31.478,45.838,39.317c11.485,4.673,23.856,7.044,36.209,7.043c7.671,0,15.337-0.914,22.776-2.758
			l1.269-0.351v-83.61l-40.551,11.225l-7.94-28.68l48.491-13.423V263.315z"/>
	</g>
</g>
<g>
</g>
<g>
</g>
<g>
</g>
<g>
</g>
<g>
</g>
<g>
</g>
<g>
</g>
<g>
</g>
<g>
</g>
<g>
</g>
<g>
</g>
<g>
</g>
<g>
</g>
<g>
</g>
<g>
</g>
</svg>
